<?xml version="1.0" encoding="UTF-8"?><svg xmlns="http://www.w3.org/2000/svg" xmlns:xlink="http://www.w3.org/1999/xlink" height="500.0" preserveAspectRatio="xMidYMid meet" version="1.0" viewBox="0.0 0.0 500.0 500.0" width="500.0" zoomAndPan="magnify"><g id="change1_1"><path d="M250,500c-0.784,0-1.433-0.607-1.488-1.388c-7.748-112.239-14.881-168.599-46.704-200.421 c-31.822-31.823-88.182-38.956-200.421-46.704C0.607,251.434,0,250.784,0,250s0.607-1.433,1.388-1.488 c112.238-7.748,168.599-14.881,200.421-46.704c31.822-31.822,38.955-88.182,46.704-200.421C248.567,0.607,249.216,0,250,0 s1.434,0.607,1.487,1.388c7.748,112.238,14.881,168.599,46.704,200.421c31.822,31.822,88.182,38.955,200.421,46.704 c0.781,0.054,1.388,0.704,1.388,1.488s-0.607,1.434-1.388,1.487c-112.239,7.748-168.599,14.881-200.421,46.704 c-31.823,31.822-38.956,88.182-46.704,200.421C251.434,499.393,250.784,500,250,500z M22.471,250 c99.236,7.335,150.982,15.618,181.446,46.082c30.464,30.465,38.747,82.211,46.082,181.446 c7.335-99.236,15.618-150.982,46.082-181.446c30.465-30.464,82.211-38.747,181.446-46.082 c-99.236-7.335-150.982-15.618-181.446-46.082c-30.464-30.465-38.747-82.21-46.082-181.446 c-7.335,99.236-15.618,150.982-46.082,181.446C173.453,234.382,121.707,242.665,22.471,250z" fill="#F1F2F2"/></g></svg>