<?xml version="1.0" encoding="UTF-8" standalone="no"?><svg xmlns="http://www.w3.org/2000/svg" xmlns:xlink="http://www.w3.org/1999/xlink" fill="#919191" height="385" stroke="#919191" stroke-linecap="square" stroke-miterlimit="10" viewBox="0 0 384.54 384.54" width="385"><defs><clipPath id="a"><path d="M0 0V384.54H384.54V0Z"/></clipPath><clipPath clip-path="url(#a)" id="b"><path d="M-182.2 597.27h1440v-810h-1440Zm0 0"/></clipPath><clipPath clip-path="url(#b)" id="c"><path d="M-182.2-212.73h1440v817.5h-1440Zm0 0"/></clipPath><clipPath clip-path="url(#c)" id="d"><path d="M-182.2-212.73h1440v810h-1440Zm0 0"/></clipPath><clipPath clip-path="url(#d)" id="e"><path d="M-182.2-212.73h1440v810h-1440Zm0 0"/></clipPath><clipPath clip-path="url(#e)" id="f"><path d="M192.27 5H358.94V149.82H192.27Zm0 0"/></clipPath><clipPath clip-path="url(#f)" id="Q"><path d="M192.27 5c70.26 0 134.61 39.33 166.66 101.86L275.6 149.56c-16.02-31.26-48.2-50.93-83.33-50.93V5"/></clipPath><clipPath id="g"><path d="M0 0V384.54H384.54V0Z"/></clipPath><clipPath clip-path="url(#g)" id="h"><path d="M-182.2 597.27h1440v-810h-1440Zm0 0"/></clipPath><clipPath clip-path="url(#h)" id="i"><path d="M-182.2-212.73h1440v817.5h-1440Zm0 0"/></clipPath><clipPath clip-path="url(#i)" id="j"><path d="M-182.2-212.73h1440v810h-1440Zm0 0"/></clipPath><clipPath clip-path="url(#j)" id="k"><path d="M-182.2-212.73h1440v810h-1440Zm0 0"/></clipPath><clipPath clip-path="url(#k)" id="l"><path d="M270.61 98.63H389.84V294.02H270.61Zm0 0"/></clipPath><clipPath clip-path="url(#l)" id="R"><path d="M354.45 98.63c35.13 60.85 33.25 136.24-4.88 195.26l-78.65-50.81c19.06-29.51 20.01-67.2 2.44-97.63l81.09-46.82"/></clipPath><clipPath id="m"><path d="M0 0V384.54H384.54V0Z"/></clipPath><clipPath clip-path="url(#m)" id="n"><path d="M-182.2 597.27h1440v-810h-1440Zm0 0"/></clipPath><clipPath clip-path="url(#n)" id="o"><path d="M-182.2-212.73h1440v817.5h-1440Zm0 0"/></clipPath><clipPath clip-path="url(#o)" id="p"><path d="M-182.2-212.73h1440v810h-1440Zm0 0"/></clipPath><clipPath clip-path="url(#p)" id="q"><path d="M-182.2-212.73h1440v810h-1440Zm0 0"/></clipPath><clipPath clip-path="url(#q)" id="r"><path d="M182.91 239.09H354.57V382.97H182.91Zm0 0"/></clipPath><clipPath clip-path="url(#r)" id="S"><path d="M354.45 285.9c-35.13 60.85-101.37 96.91-171.54 93.4l4.68-93.52c35.09 1.76 68.2-16.28 85.77-46.7l81.09 46.82"/></clipPath><clipPath id="s"><path d="M0 0V384.54H384.54V0Z"/></clipPath><clipPath clip-path="url(#s)" id="t"><path d="M-182.2 597.27h1440v-810h-1440Zm0 0"/></clipPath><clipPath clip-path="url(#t)" id="u"><path d="M-182.2-212.73h1440v817.5h-1440Zm0 0"/></clipPath><clipPath clip-path="url(#u)" id="v"><path d="M-182.2-212.73h1440v810h-1440Zm0 0"/></clipPath><clipPath clip-path="url(#v)" id="w"><path d="M-182.2-212.73h1440v810h-1440Zm0 0"/></clipPath><clipPath clip-path="url(#w)" id="x"><path d="M25.6 234.72H192.27V379.54H25.6Zm0 0"/></clipPath><clipPath clip-path="url(#x)" id="T"><path d="M192.27 379.54c-70.26 0-134.61-39.33-166.66-101.86l83.33-42.71c16.02 31.26 48.2 50.93 83.33 50.93v93.63"/></clipPath><clipPath id="y"><path d="M0 0V384.54H384.54V0Z"/></clipPath><clipPath clip-path="url(#y)" id="z"><path d="M-182.2 597.27h1440v-810h-1440Zm0 0"/></clipPath><clipPath clip-path="url(#z)" id="A"><path d="M-182.2-212.73h1440v817.5h-1440Zm0 0"/></clipPath><clipPath clip-path="url(#A)" id="B"><path d="M-182.2-212.73h1440v810h-1440Zm0 0"/></clipPath><clipPath clip-path="url(#B)" id="C"><path d="M-182.2-212.73h1440v810h-1440Zm0 0"/></clipPath><clipPath clip-path="url(#C)" id="D"><path d="M-5.3 90.52H113.93V285.9H-5.3Zm0 0"/></clipPath><clipPath clip-path="url(#D)" id="U"><path d="M30.09 285.9C-5.04 225.06-3.16 149.66 34.97 90.65l78.65 50.81c-19.06 29.51-20.01 67.2-2.44 97.63L30.09 285.9"/></clipPath><clipPath id="E"><path d="M0 0V384.54H384.54V0Z"/></clipPath><clipPath clip-path="url(#E)" id="F"><path d="M-182.2 597.27h1440v-810h-1440Zm0 0"/></clipPath><clipPath clip-path="url(#F)" id="G"><path d="M-182.2-212.73h1440v817.5h-1440Zm0 0"/></clipPath><clipPath clip-path="url(#G)" id="H"><path d="M-182.2-212.73h1440v810h-1440Zm0 0"/></clipPath><clipPath clip-path="url(#H)" id="I"><path d="M-182.2-212.73h1440v810h-1440Zm0 0"/></clipPath><clipPath clip-path="url(#I)" id="J"><path d="M29.97 5h162.3V145.45H29.97Zm0 0"/></clipPath><clipPath clip-path="url(#J)" id="V"><path d="M30.09 98.63C63.54 40.7 125.35 5.01 192.25 5l.01 93.63c-33.45 0-64.36 17.85-81.08 46.82L30.09 98.63"/></clipPath><clipPath id="K"><path d="M0 0V384.54H384.54V0Z"/></clipPath><clipPath clip-path="url(#K)" id="L"><path d="M-182.2 597.27h1440v-810h-1440Zm0 0"/></clipPath><clipPath clip-path="url(#L)" id="M"><path d="M-182.2-212.73h1440v817.5h-1440Zm0 0"/></clipPath><clipPath clip-path="url(#M)" id="N"><path d="M-182.2-212.73h1440v810h-1440Zm0 0"/></clipPath><clipPath clip-path="url(#N)" id="O"><path d="M-182.2-212.73h1440v810h-1440Zm0 0"/></clipPath><clipPath clip-path="url(#O)" id="P"><path d="M192.27 5h.31V98.63h-.31Zm0 0"/></clipPath><clipPath clip-path="url(#P)" id="W"><path d="M192.27 5h.01l0 93.63c0 0-.01 0-.01 0V5"/></clipPath></defs><g><g stroke="none"><path clip-path="url(#Q)" d="M5 5H379.54V379.54H5ZM5 5"/><path clip-path="url(#R)" d="M5 5H379.54V379.54H5ZM5 5" fill="#d9d9d9"/><path clip-path="url(#S)" d="M5 5H379.54V379.54H5ZM5 5" fill="#ffffff"/><path clip-path="url(#T)" d="M5 5H379.54V379.54H5ZM5 5" fill="#545454"/><path clip-path="url(#U)" d="M5 5H379.54V379.54H5ZM5 5" fill="#cbcbcb"/><path clip-path="url(#V)" d="M5 5H379.54V379.54H5ZM5 5" fill="#545454"/><path clip-path="url(#W)" d="M5 5H379.54V379.54H5ZM5 5" fill="#ffffff"/></g></g></svg>