<?xml version="1.0" encoding="UTF-8" standalone="no"?><svg xmlns="http://www.w3.org/2000/svg" xmlns:xlink="http://www.w3.org/1999/xlink" fill="#ffffff" height="38" preserveAspectRatio="xMidYMid meet" version="1" viewBox="13.0 5.0 22.0 38.0" width="22" zoomAndPan="magnify"><g id="change1_1"><path d="M13.292 16.708c-0.182-0.181-0.294-0.431-0.294-0.708s0.112-0.527 0.294-0.708v0l10-10c0.181-0.181 0.431-0.294 0.708-0.294s0.527 0.112 0.708 0.294v0l10 10c0.181 0.181 0.293 0.432 0.293 0.708 0 0.553-0.448 1.001-1.001 1.001-0.276 0-0.527-0.112-0.708-0.293l-9.292-9.294-9.292 9.294c-0.181 0.181-0.431 0.294-0.708 0.294s-0.527-0.112-0.708-0.294v0zM13.292 32.708l10 10c0.181 0.181 0.431 0.294 0.708 0.294s0.527-0.112 0.708-0.294v0l10-10c0.181-0.181 0.293-0.432 0.293-0.708 0-0.553-0.448-1.001-1.001-1.001-0.276 0-0.527 0.112-0.708 0.293l-9.292 9.294-9.292-9.294c-0.181-0.181-0.432-0.293-0.708-0.293-0.553 0-1.001 0.448-1.001 1.001 0 0.276 0.112 0.527 0.293 0.708v0z" fill="inherit"/></g></svg>